<svg width="136" height="358" viewBox="0 0 136 358" fill="none" xmlns="http://www.w3.org/2000/svg">
<circle cx="18" cy="18" r="18" fill="#182327"/>
<path d="M19.1427 357.852V350.649H21.1907L21.4621 348.113H19.1427L19.1461 346.844C19.1461 346.183 19.2095 345.829 20.1673 345.829H21.4478V343.293H19.3993C16.9388 343.293 16.0729 344.523 16.0729 346.592V348.114H14.5391V350.649H16.0729V357.75C16.6704 357.868 17.2882 357.93 17.9207 357.93C18.3293 357.93 18.7375 357.904 19.1427 357.852V357.852Z" fill="white"/>
<circle cx="118" cy="18" r="18" fill="#182327"/>
<path d="M127 345.026C126.331 345.32 125.617 345.515 124.874 345.609C125.639 345.152 126.223 344.434 126.497 343.568C125.784 343.994 124.996 344.294 124.157 344.462C123.48 343.74 122.515 343.293 121.462 343.293C119.419 343.293 117.774 344.953 117.774 346.988C117.774 347.28 117.799 347.562 117.859 347.83C114.792 347.68 112.077 346.208 110.253 343.967C109.935 344.52 109.748 345.152 109.748 345.834C109.748 347.113 110.406 348.246 111.387 348.903C110.794 348.891 110.213 348.719 109.72 348.448C109.72 348.459 109.72 348.474 109.72 348.488C109.72 350.283 110.999 351.774 112.676 352.117C112.376 352.199 112.049 352.239 111.709 352.239C111.473 352.239 111.234 352.225 111.01 352.176C111.488 353.638 112.845 354.714 114.459 354.748C113.203 355.731 111.609 356.324 109.883 356.324C109.581 356.324 109.29 356.31 109 356.273C110.635 357.328 112.572 357.93 114.661 357.93C121.451 357.93 125.164 352.301 125.164 347.421C125.164 347.258 125.158 347.1 125.15 346.944C125.883 346.423 126.498 345.774 127 345.026Z" fill="white"/>
<circle cx="68" cy="18" r="18" fill="#182327"/>
<path d="M61.0762 344.994C61.0762 344.501 61.2399 344.094 61.5673 343.774C61.8948 343.454 62.3205 343.293 62.8444 343.293C63.3589 343.293 63.7752 343.451 64.0933 343.767C64.4208 344.092 64.5845 344.516 64.5845 345.038C64.5845 345.511 64.4254 345.905 64.1074 346.221C63.7799 346.546 63.3496 346.709 62.8163 346.709H62.8023C62.2877 346.709 61.8714 346.546 61.5533 346.221C61.2352 345.896 61.0762 345.487 61.0762 344.994ZM61.2586 357.93V348.054H64.374V357.93H61.2586ZM66.1001 357.93H69.2155V352.416C69.2155 352.071 69.2529 351.804 69.3277 351.617C69.4587 351.282 69.6575 350.999 69.9241 350.767C70.1908 350.535 70.5252 350.42 70.9275 350.42C71.9753 350.42 72.4992 351.164 72.4992 352.652V357.93H75.6146V352.268C75.6146 350.809 75.2872 349.703 74.6323 348.949C73.9774 348.195 73.112 347.818 72.0362 347.818C70.8293 347.818 69.8891 348.365 69.2155 349.459V349.488H69.2014L69.2155 349.459V348.054H66.1001C66.1188 348.37 66.1281 349.35 66.1281 350.996C66.1281 352.642 66.1188 354.954 66.1001 357.93Z" fill="white"/>
</svg>
