<svg width="339" height="288" viewBox="0 0 339 288" fill="none" xmlns="http://www.w3.org/2000/svg">
<path d="M236.679 287.853H259.073C307.065 257.921 339 204.653 339 143.926C339 83.1994 307.065 29.9313 259.073 0H236.679C290.799 25.3046 328.295 80.2367 328.295 143.926C328.295 207.616 290.799 262.548 236.679 287.853Z" fill="#C6EAF8"/>
<path d="M79.9275 287.853H102.321C48.2006 262.548 10.7053 207.616 10.7053 143.926C10.7053 80.2367 48.2006 25.3046 102.321 0L79.9275 0C31.9351 29.9313 0 83.1994 0 143.926C0 204.653 31.9351 257.921 79.9275 287.853Z" fill="#C6EAF8"/>
<path fill-rule="evenodd" clip-rule="evenodd" d="M169.5 198.899C199.861 198.899 224.473 174.287 224.473 143.926C224.473 113.566 199.861 88.9534 169.5 88.9534C139.139 88.9534 114.527 113.566 114.527 143.926C114.527 174.287 139.139 198.899 169.5 198.899ZM169.5 188.194C193.948 188.194 213.768 168.375 213.768 143.926C213.768 119.478 193.948 99.6586 169.5 99.6586C145.052 99.6586 125.232 119.478 125.232 143.926C125.232 168.375 145.052 188.194 169.5 188.194Z" fill="#C6EAF8"/>
<path fill-rule="evenodd" clip-rule="evenodd" d="M251.959 143.926C251.959 189.467 215.041 226.386 169.5 226.386C123.959 226.386 87.0405 189.467 87.0405 143.926C87.0405 98.3852 123.959 61.4668 169.5 61.4668C215.041 61.4668 251.959 98.3852 251.959 143.926ZM241.254 143.926C241.254 183.555 209.129 215.68 169.5 215.68C129.871 215.68 97.7458 183.555 97.7458 143.926C97.7458 104.298 129.871 72.1721 169.5 72.1721C209.129 72.1721 241.254 104.298 241.254 143.926Z" fill="#C6EAF8"/>
<path fill-rule="evenodd" clip-rule="evenodd" d="M169.5 253.872C230.221 253.872 279.446 204.648 279.446 143.926C279.446 83.2048 230.221 33.9804 169.5 33.9804C108.779 33.9804 59.5541 83.2048 59.5541 143.926C59.5541 204.648 108.779 253.872 169.5 253.872ZM169.5 243.167C224.309 243.167 268.741 198.735 268.741 143.926C268.741 89.1172 224.309 44.6856 169.5 44.6856C114.691 44.6856 70.2593 89.1172 70.2593 143.926C70.2593 198.735 114.691 243.167 169.5 243.167Z" fill="#C6EAF8"/>
<path fill-rule="evenodd" clip-rule="evenodd" d="M311.514 143.926C311.514 222.358 247.932 285.94 169.5 285.94C91.0681 285.94 27.4865 222.358 27.4865 143.926C27.4865 65.4944 91.0681 1.91278 169.5 1.91278C247.932 1.91278 311.514 65.4944 311.514 143.926ZM300.808 143.926C300.808 216.446 242.02 275.235 169.5 275.235C96.9805 275.235 38.1918 216.446 38.1918 143.926C38.1918 71.4068 96.9805 12.618 169.5 12.618C242.02 12.618 300.808 71.4068 300.808 143.926Z" fill="#C6EAF8"/>
</svg>
