<svg width="339" height="337" viewBox="0 0 339 337" fill="none" xmlns="http://www.w3.org/2000/svg">
<path fill-rule="evenodd" clip-rule="evenodd" d="M252.447 168.5C252.447 214.04 215.31 250.957 169.5 250.957C123.69 250.957 86.5532 214.04 86.5532 168.5C86.5532 122.96 123.69 86.0426 169.5 86.0426C215.31 86.0426 252.447 122.96 252.447 168.5ZM243.791 168.5C243.791 209.288 210.53 242.353 169.5 242.353C128.47 242.353 95.2085 209.288 95.2085 168.5C95.2085 127.712 128.47 94.6468 169.5 94.6468C210.53 94.6468 243.791 127.712 243.791 168.5Z" fill="#FFC233"/>
<path fill-rule="evenodd" clip-rule="evenodd" d="M169.5 272.468C227.261 272.468 274.085 225.92 274.085 168.5C274.085 111.08 227.261 64.5319 169.5 64.5319C111.739 64.5319 64.9149 111.08 64.9149 168.5C64.9149 225.92 111.739 272.468 169.5 272.468ZM169.5 263.864C222.481 263.864 265.43 221.168 265.43 168.5C265.43 115.832 222.481 73.1362 169.5 73.1362C116.519 73.1362 73.5702 115.832 73.5702 168.5C73.5702 221.168 116.519 263.864 169.5 263.864Z" fill="#FFC233"/>
<path fill-rule="evenodd" clip-rule="evenodd" d="M295.723 168.5C295.723 237.8 239.211 293.979 169.5 293.979C99.7887 293.979 43.2766 237.8 43.2766 168.5C43.2766 99.2 99.7887 43.0213 169.5 43.0213C239.211 43.0213 295.723 99.2 295.723 168.5ZM287.068 168.5C287.068 233.048 234.431 285.374 169.5 285.374C104.569 285.374 51.9319 233.048 51.9319 168.5C51.9319 103.952 104.569 51.6255 169.5 51.6255C234.431 51.6255 287.068 103.952 287.068 168.5Z" fill="#FFC233"/>
<path fill-rule="evenodd" clip-rule="evenodd" d="M169.5 315.489C251.162 315.489 317.362 249.68 317.362 168.5C317.362 87.32 251.162 21.5106 169.5 21.5106C87.8382 21.5106 21.6383 87.32 21.6383 168.5C21.6383 249.68 87.8382 315.489 169.5 315.489ZM169.5 306.885C246.382 306.885 308.706 244.928 308.706 168.5C308.706 92.072 246.382 30.1149 169.5 30.1149C92.6184 30.1149 30.2936 92.072 30.2936 168.5C30.2936 244.928 92.6184 306.885 169.5 306.885Z" fill="#FFC233"/>
<path fill-rule="evenodd" clip-rule="evenodd" d="M169.5 337C263.112 337 339 261.56 339 168.5C339 75.44 263.112 0 169.5 0C75.8877 0 0 75.44 0 168.5C0 261.56 75.8877 337 169.5 337ZM169.5 328.396C258.332 328.396 330.345 256.808 330.345 168.5C330.345 80.192 258.332 8.60426 169.5 8.60426C80.6679 8.60426 8.65532 80.192 8.65532 168.5C8.65532 256.808 80.6679 328.396 169.5 328.396Z" fill="#FFC233"/>
</svg>
